<svg xmlns="http://www.w3.org/2000/svg" viewBox="0 0 512.15 167.82"><defs><style>.cls-1{font-size:31.84px;font-family:Nunito-Regular, Nunito;letter-spacing:1.07em;}.cls-2{letter-spacing:1.07em;}</style></defs><g id="Layer_2" data-name="Layer 2"><g id="Layer_1-2" data-name="Layer 1"><path d="M45.61.83c20.65,0,36.14,12.48,36.14,12.48l-6.1,14.13a6.5,6.5,0,0,1-9.59,2.84C61.15,27,53.78,23.2,45.61,23.2,31,23.2,31,32.67,31,35.25s0,8.76,20.65,14.63c24.09,6.83,32.7,16.35,32.7,35.71S71.42,123,42.16,123,0,107.53,0,107.53L9.61,93.89a6.52,6.52,0,0,1,8.91-1.69c6.16,4,16.51,10,23.64,10,10.76,0,16.35-5,16.35-12.34S57.22,77.84,33.56,71,4.73,49.45,4.73,36.54,16.78.83,45.61.83Z"/><path d="M154.58,0a61.89,61.89,0,1,0,61.89,61.89A61.89,61.89,0,0,0,154.58,0Zm1.62,87.43c-2.66,4.73-5.32,3.55-5.61,7.39s-.3,8.57-.3,8.57L141.43,101s-3.25-11.82-1.18-19.5,8-8.57,12.11-7.09S158.86,82.71,156.2,87.43ZM121.64,29.24s8.56-13.89,31-13.89S190.17,29.24,194,36.92,197.85,49,197.85,49Z"/><polygon points="257.53 101.03 257.53 2.95 229.17 2.95 229.17 122.3 248.37 122.3 257.53 122.3 301.55 122.3 301.55 101.03 257.53 101.03"/><rect x="317.79" y="2.95" width="26.59" height="119.35"/><path d="M418.83,3h-52V122.3h46.68s61.74,2.66,61.74-58.2S418.83,3,418.83,3ZM414.4,101H394.9V23.92h19.5s32.79-2.36,32.79,38.7S414.4,101,414.4,101Z"/><text class="cls-1" transform="translate(229.17 159.06)">G<tspan class="cls-2" x="57.12" y="0">R</tspan><tspan x="112.87" y="0">OUP</tspan></text></g></g></svg>